<?xml version="1.0" encoding="UTF-8" standalone="no"?>
<!-- Created with Inkscape (http://www.inkscape.org/) -->

<svg
   version="1.1"
   id="svg1"
   width="187.27066"
   height="32.701874"
   viewBox="0 0 187.27066 32.701874"
   xmlns="http://www.w3.org/2000/svg"
   xmlns:svg="http://www.w3.org/2000/svg">
  <defs
     id="defs1" />
  <g
     id="g1"
     transform="translate(0,-7.9580833e-4)">
    <path
       id="path1"
       d="m 126.137,6.762 h -6.192 l 1.192,-4.082 h 19.316 l -1.187,4.082 H 133.07 L 128,24.109 h -6.938 z"
       style="fill:#000000;fill-opacity:1;fill-rule:nonzero;stroke:none"
       transform="scale(1.3333333)" />
    <path
       id="path2"
       d="m 102.969,17.566 -0.219,0.75 c -0.473,1.622 -0.215,2.852 2.176,2.852 2.437,0 3.523,-1.32 3.883,-2.547 1.351,-4.625 -12.071,-2.043 -9.727,-10.055 1,-3.425 4.359,-6.308 11.496,-6.308 6.938,0 8.664,2.554 7.699,5.855 l -0.148,0.512 h -6.684 c 0.297,-1.023 0.352,-1.77 0.078,-2.254 -0.261,-0.508 -0.851,-0.75 -1.886,-0.75 -1.731,0 -2.985,0.75 -3.442,2.313 -1.304,4.472 12.024,2.222 9.813,9.785 -1.422,4.863 -5.707,6.808 -12.063,6.808 -5.035,0 -9.371,-1.109 -8.066,-5.582 l 0.402,-1.379 z"
       style="fill:#000000;fill-opacity:1;fill-rule:nonzero;stroke:none"
       transform="scale(1.3333333)" />
    <path
       id="path3"
       d="m 91.531,2.68 h 6.938 l -6.27,21.429 h -6.933 z"
       style="fill:#000000;fill-opacity:1;fill-rule:nonzero;stroke:none"
       transform="scale(1.3333333)" />
    <path
       id="path4"
       d="m 59.855,24.109 h 7.188 l 2.223,-4.082 h 7.058 l -0.117,4.082 h 7.18 L 82.305,2.68 h -8.672 z m 16.579,-7.98 h -5.036 l 5.227,-9.543 h 0.082 z"
       style="fill:#000000;fill-opacity:1;fill-rule:nonzero;stroke:none"
       transform="scale(1.3333333)" />
    <path
       id="path5"
       d="m 44.992,18.988 c 1.266,-1.886 2.133,-3.593 2.578,-5.074 0.242,-0.797 0.364,-1.535 0.364,-2.203 0,-0.977 -0.258,-1.813 -0.762,-2.504 3.445,-0.48 6.414,-0.641 8.598,-0.457 2.214,0.184 3.554,0.723 3.765,1.516 0.02,0.078 0.031,0.156 0.031,0.238 0,1.805 -4.863,5.172 -14.574,8.484 M 55.887,1.32 C 45.867,-4.57 17.828,10.383 0,23.957 l 0.199,0.281 C 22.551,9.176 41.547,4.484 46.406,8.723 c 0.11,0.097 0.215,0.199 0.309,0.304 -3.297,0.477 -7.016,1.243 -10.903,2.285 -12.496,3.348 -22.035,8.282 -21.3,11.02 0.734,2.734 11.461,2.238 23.957,-1.109 2.066,-0.555 4.051,-1.153 5.922,-1.778 -1.375,1.977 -2.856,3.688 -3.715,4.66 H 55.84 c 3.832,-8.75 6.668,-18.89 0.047,-22.785"
       style="fill:#e60012;fill-opacity:1;fill-rule:nonzero;stroke:none"
       transform="scale(1.3333333)" />
  </g>
</svg>
